#!OML:ASF I:\Actors\actors\Patient Classification 1\Patient 1\Session 1\Subject1.ASF
:FULLY-SPECIFIED
:DEGREES
176
root 0.669114 17.4516 9.4115 9.14446 -4.07523 -9.25959
lowerback -1.6322 -0.642687 6.70843
upperback -8.23542 -0.470525 3.5682
thorax -7.78335 -0.554199 0.0420701
lowerneck -13.4311 -3.4546 -2.4036
upperneck 25.4703 -5.08829 2.61322
head 10.5034 -2.28467 0.67277
rclavicle 7.97623e-015 -7.55382e-015
rhumerus -46.3926 4.55479 -88.6953
rradius 69.3473
rwrist 14.4388
rhand 3.44213 -41.3452
rfingers 7.12502
rthumb 28.883 -69.129
lclavicle 7.97623e-015 -7.55382e-015
lhumerus -18.3149 -14.8871 100.065
lradius 89.972
lwrist 15.2232
lhand -26.3701 -4.02344
lfingers 7.12502
lthumb 0.188291 25.9562
rfemur -5.45898 22.4968 25.7571
rtibia 6.66288
rfoot -12.8787 -21.3123
rtoes 2.96368
lfemur 7.45603 -42.9172 -13.8548
ltibia -4.65197
lfoot -27.4086 53.4715
ltoes 16.778
177
root 0.677946 17.452 9.40515 9.20477 -4.43549 -9.23914
lowerback -1.63432 -0.587091 6.75967
upperback -8.1867 -0.397568 3.58995
thorax -7.72604 -0.519158 0.031315
lowerneck -13.9281 -3.87431 -2.25918
upperneck 25.9841 -5.4426 1.54909
head 10.7624 -2.55163 0.208492
rclavicle -1.29955e-014 1.68967e-014
rhumerus -45.5606 6.64079 -89.4443
rradius 72.2866
rwrist 18.0333
rhand -0.329533 -41.2509
rfingers 7.12502
rthumb 25.2747 -69.5966
lclavicle -1.29955e-014 1.68967e-014
lhumerus -18.427 -15.1537 99.9732
lradius 89.8747
lwrist 15.2284
lhand -26.4836 -4.34771
lfingers 7.12502
lthumb 0.0786841 25.632
rfemur -5.61213 22.5834 25.6237
rtibia 6.70914
rfoot -12.7898 -21.0672
rtoes 2.7598
lfemur 7.53636 -42.9227 -14.0176
ltibia -4.66523
lfoot -27.8672 53.72
ltoes 17.1879
178
root 0.687802 17.4508 9.39838 9.30635 -4.86975 -9.13355
lowerback -1.70313 -0.500358 6.72867
upperback -8.12933 -0.294723 3.57414
thorax -7.61661 -0.464101 0.023447
lowerneck -14.431 -4.2587 -2.37709
upperneck 26.4602 -5.74863 0.770921
head 11.0239 -2.79049 -0.110275
rclavicle -9.31803e-015 1.43125e-014
rhumerus -44.4183 8.42119 -89.7924
rradius 75.0456
rwrist 23.5057
rhand -3.99158 -40.0152
rfingers 7.12502
rthumb 21.762 -68.8118
lclavicle -9.31803e-015 1.43125e-014
lhumerus -18.5365 -15.4067 99.8526
lradius 89.8849
lwrist 15.5316
lhand -26.4408 -4.49895
lfingers 7.12502
lthumb 0.120037 25.4808
rfemur -5.83804 22.7236 25.3539
rtibia 6.77393
rfoot -12.7131 -20.8082
rtoes 2.54219
lfemur 7.62509 -43.073 -14.3152
ltibia -4.67581
lfoot -28.593 54.1079
ltoes 17.8414
179
root 0.698373 17.4494 9.38907 9.41589 -5.34468 -9.08203
lowerback -1.77051 -0.394969 6.76804
upperback -8.05935 -0.166623 3.54304
thorax -7.4947 -0.401313 -0.0405097
lowerneck -13.4249 -4.28169 -3.23674
upperneck 25.3692 -5.83662 1.79768
head 10.4887 -2.80758 0.423482
rclavicle 2.3556e-014 -2.38542e-015
rhumerus -42.8599 10.0964 -89.7577
rradius 77.4743
rwrist 29.988
rhand -7.90557 -37.8305
rfingers 7.12502
rthumb 17.9997 -67.0176
lclavicle 2.3556e-014 -2.38542e-015
lhumerus -18.6126 -15.6272 99.6789
lradius 89.9221
lwrist 15.7669
lhand -26.4168 -4.47386
lfingers 7.12502
lthumb 0.143228 25.5058
rfemur -6.06925 22.8521 25.1372
rtibia 6.8089
rfoot -12.5507 -20.5034
rtoes 2.20271
lfemur 7.71367 -43.2452 -14.5658
ltibia -4.66567
lfoot -29.3836 54.5181
ltoes 18.3991
180
root 0.708934 17.4486 9.37622 9.53845 -5.90368 -9.06284
lowerback -1.77991 -0.293169 6.79554
upperback -8.03228 -0.0343299 3.53088
thorax -7.453 -0.337405 -0.0757759
lowerneck -13.1777 -4.52225 -3.41735
upperneck 25.2271 -6.0944 1.63003
head 10.3971 -2.96753 0.367042
rclavicle 2.12948e-014 -4.11484e-014
rhumerus -40.914 12.3877 -89.6001
rradius 79.2253
rwrist 35.2633
rhand -11.6685 -36.887
rfingers 7.12502
rthumb 14.3764 -66.3691
lclavicle 2.12948e-014 -4.11484e-014
lhumerus -18.7189 -15.6914 99.4957
lradius 89.9239
lwrist 15.6846
lhand -26.4099 -4.43239
lfingers 7.12502
lthumb 0.149845 25.5473
rfemur -6.34304 22.9364 24.9332
rtibia 6.84616
rfoot -12.3478 -20.0596
rtoes 1.8655
lfemur 7.78423 -43.3801 -14.7839
ltibia -4.62593
lfoot -30.2753 54.9159
ltoes 19.0456
181
root 0.718099 17.452 9.36559 9.48622 -6.36188 -9.03143
lowerback -1.66735 -0.269292 6.75403
upperback -7.99246 0.00464487 3.54305
thorax -7.47191 -0.3152 -0.0416988
lowerneck -12.8303 -4.72057 -3.55094
upperneck 25.1552 -6.30804 1.44745
head 10.3085 -3.10546 0.306185
rclavicle 2.11457e-014 -4.92986e-014
rhumerus -38.6819 14.9819 -89.2417
rradius 80.3795
rwrist 39.2359
rhand -14.8673 -36.9907
rfingers 7.12502
rthumb 11.2928 -66.6667
lclavicle 2.11457e-014 -4.92986e-014
lhumerus -18.8697 -15.6165 99.3513
lradius 89.8961
lwrist 15.4294
lhand -26.3249 -4.57783
lfingers 7.12502
lthumb 0.231982 25.4018
rfemur -6.32317 23.129 24.8363
rtibia 6.77876
rfoot -12.1936 -19.8244
rtoes 1.58621
lfemur 8.02282 -43.3486 -15.0841
ltibia -4.6054
lfoot -30.9266 55.1072
ltoes 19.6981
182
root 0.727809 17.4596 9.361 9.24028 -6.45361 -8.88499
lowerback -1.56678 -0.351225 6.67502
upperback -7.84277 -0.110881 3.4814
thorax -7.37063 -0.364958 -0.0600616
lowerneck -12.6189 -4.91725 -3.57333
upperneck 25.0891 -6.55416 1.31185
head 10.2466 -3.24038 0.236562
rclavicle 2.87989e-014 -2.92213e-014
rhumerus -36.0398 17.4735 -88.6463
rradius 80.9677
rwrist 42.0244
rhand -17.6398 -37.334
rfingers 7.12502
rthumb 8.61794 -67.1381
lclavicle 2.87989e-014 -2.92213e-014
lhumerus -18.8445 -15.6652 99.192
lradius 89.7925
lwrist 15.2929
lhand -26.2896 -4.7684
lfingers 7.12502
lthumb 0.266032 25.2112
rfemur -5.90051 23.3594 24.7683
rtibia 6.51064
rfoot -12.1295 -20.0225
rtoes 1.53167
lfemur 8.29153 -43.0811 -15.4397
ltibia -4.60066
lfoot -30.6623 54.925
ltoes 19.7333
183
root 0.739379 17.4635 9.35508 9.13076 -6.46844 -8.75405
lowerback -1.62613 -0.398255 6.67973
upperback -7.6718 -0.19648 3.37583
thorax -7.15388 -0.403978 -0.174839
lowerneck -12.6483 -5.13756 -3.60931
upperneck 25.1292 -6.85529 1.29109
head 10.2761 -3.38486 0.194544
rclavicle 5.49143e-015 6.36111e-015
rhumerus -32.9953 19.895 -87.7748
rradius 81.0725
rwrist 43.9673
rhand -19.8106 -37.8769
rfingers 7.12502
rthumb 6.5227 -67.7565
lclavicle 5.49143e-015 6.36111e-015
lhumerus -18.63 -15.8435 99.0617
lradius 89.64
lwrist 15.2984
lhand -26.4186 -4.85015
lfingers 7.12502
lthumb 0.141401 25.1295
rfemur -5.66044 23.5094 24.6436
rtibia 6.26514
rfoot -12.0611 -20.2013
rtoes 1.6224
lfemur 8.28464 -42.7812 -15.574
ltibia -4.57999
lfoot -30.1437 54.7117
ltoes 19.4458
184
root 0.749723 17.4635 9.34301 9.13655 -6.80643 -8.75684
lowerback -1.49727 -0.346744 6.75787
upperback -7.69051 -0.115078 3.32712
thorax -7.24625 -0.373138 -0.271028
lowerneck -12.5078 -5.30265 -3.73403
upperneck 25.3591 -7.06858 1.25758
head 10.343 -3.50047 0.176139
rclavicle -1.4884e-014 4.87022e-014
rhumerus -29.9896 22.1823 -86.5762
rradius 80.9846
rwrist 46.5203
rhand -19.9901 -38.2103
rfingers 7.12502
rthumb 6.34937 -68.0952
lclavicle -1.4884e-014 4.87022e-014
lhumerus -18.6868 -15.8544 99.0747
lradius 89.5269
lwrist 15.3698
lhand -26.7011 -4.8765
lfingers 7.12502
lthumb -0.13137 25.1032
rfemur -5.7348 23.6353 24.561
rtibia 6.25078
rfoot -11.9514 -20.0134
rtoes 1.51706
lfemur 8.39009 -42.8098 -15.7247
ltibia -4.57306
lfoot -30.671 54.9183
ltoes 19.828
185
root 0.759089 17.4634 9.33013 9.15723 -7.26661 -8.70313
lowerback -1.48871 -0.304154 6.67197
upperback -7.67389 -0.0605232 3.34838
thorax -7.22822 -0.339713 -0.204236
lowerneck -12.3784 -5.38922 -3.848
upperneck 25.6186 -7.13281 1.07373
head 10.4124 -3.56394 0.121751
rclavicle 4.02539e-015 -1.59028e-014
rhumerus -26.6302 24.4572 -84.9078
rradius 80.3959
rwrist 49.065
rhand -20.5438 -38.7769
rfingers 7.12502
rthumb 5.81477 -68.6772
lclavicle 4.02539e-015 -1.59028e-014
lhumerus -18.6688 -15.6617 99.1256
lradius 89.4211
lwrist 15.4563
lhand -27.1234 -4.98277
lfingers 7.12502
lthumb -0.539294 24.9963
rfemur -5.89514 23.7318 24.3767
rtibia 6.28876
rfoot -11.8336 -19.686
rtoes 1.38705
lfemur 8.57588 -42.9877 -16.0412
ltibia -4.56236
lfoot -31.7811 55.2349
ltoes 20.759
186
root 0.768863 17.4639 9.31883 9.22838 -7.66168 -8.61774
lowerback -1.53359 -0.235087 6.62949
upperback -7.66687 0.0233146 3.31502
thorax -7.1889 -0.296181 -0.220569
lowerneck -12.2612 -5.52246 -3.89252
upperneck 25.7509 -7.26472 0.855582
head 10.435 -3.65615 0.036502
rclavicle -2.75814e-014 -2.36554e-014
rhumerus -23.3696 27.0934 -83.2562
rradius 79.315
rwrist 50.2456
rhand -20.9726 -39.4738
rfingers 7.12502
rthumb 5.4008 -69.385
lclavicle -2.75814e-014 -2.36554e-014
lhumerus -18.6622 -15.6031 99.2218
lradius 89.3584
lwrist 15.4716
lhand -27.5006 -5.09213
lfingers 7.12502
lthumb -0.903613 24.8857
rfemur -6.09433 23.7998 24.1323
rtibia 6.26853
rfoot -11.6613 -19.4075
rtoes 1.21963
lfemur 8.58656 -43.0567 -16.259
ltibia -4.51882
lfoot -32.6026 55.4467
ltoes 21.4689
187
root 0.776662 17.4644 9.30676 9.272 -8.15709 -8.70557
lowerback -1.4422 -0.0942139 6.75493
upperback -7.64867 0.220813 3.28804
thorax -7.21301 -0.207963 -0.327476
lowerneck -12.1296 -5.698 -3.9566
upperneck 25.7464 -7.49117 0.79643
head 10.4146 -3.77547 0.000821327
rclavicle 1.0312e-014 -6.75868e-015
rhumerus -20.0449 29.3057 -81.3623
rradius 77.8242
rwrist 51.3073
rhand -20.9141 -39.8061
rfingers 7.12502
rthumb 5.45728 -69.7158
lclavicle 1.0312e-014 -6.75868e-015
lhumerus -18.6983 -15.6565 99.3415
lradius 89.324
lwrist 15.4373
lhand -27.6872 -5.09952
lfingers 7.12502
lthumb -1.08382 24.8775
rfemur -6.28211 23.9137 24.1232
rtibia 6.35768
rfoot -11.512 -19.0678
rtoes 0.898903
lfemur 8.75645 -43.1266 -16.3789
ltibia -4.53091
lfoot -33.6397 55.7267
ltoes 22.2109
